<mxfile host="app.diagrams.net" modified="2023-08-28T15:13:57.422Z" agent="Mozilla/5.0 (Windows NT 10.0; Win64; x64) AppleWebKit/537.36 (KHTML, like Gecko) Chrome/116.0.0.0 Safari/537.36" version="21.6.9" etag="ZOm1uEz5jFnBEhZLfSe7" type="github">
  <diagram name="Страница — 1" id="SE-xHEJyhNsvs1570O4z">
    <mxGraphModel>
      <root>
        <mxCell id="0" />
        <mxCell id="1" parent="0" />
      </root>
    </mxGraphModel>
  </diagram>
</mxfile>
